<svg width="1000" height="1000" xmlns="http://www.w3.org/2000/svg">

    <!-- <path fill="#011627" d="M 200 150 C 200 400, 200 500, 500 700" />
    <path fill="#011627" d="M 800 150 C 800 400, 800 500, 500 700" />
    <path fill="#011627" d="M 800 150 C 500 800, 400 900, 500 100" />
    <path fill="#011627" d="M 200 150 C 500 800, 600 900, 500 100" />
    <path fill="#01162F" d="M 500 700 C 200 500, 600 500, 500 700" />
    <path fill="#01162F" d="M 500 700 C 800 500, 400 500, 500 700" /> -->

    <rect fill="#FF9F1C" width="200" height="200" rx="16" transform="translate(325, 250) rotate(-30) skewX(30) scale(1, .86062)"/>
    <circle fill="white" r="22" transform="translate(500, 250) rotate(-30) skewX(30) scale(1, .86062)"/>

    <rect fill="#FF9F1C" width="200" height="200" rx="16" transform="translate(520, 375) rotate(-30) skewX(-30) scale(1, .86062)"/>
    <circle fill="white" r="22" transform="translate(575, 400) rotate(-30) skewX(-30) scale(1, .86062)"/>
    <circle fill="white" r="22" transform="translate(650, 450) rotate(-30) skewX(-30) scale(1, .86062)"/>

    <rect fill="#FF9F1C" width="200" height="200" rx="16" transform="translate(305, 275) rotate(30) skewX(30) scale(1, .86062)"/>
    <circle fill="white" r="22" transform="translate(350, 450) rotate(30) skewX(30) scale(1, .86062)"/>
    <circle fill="white" r="22" transform="translate(387, 425) rotate(30) skewX(30) scale(1, .86062)"/>
    <circle fill="white" r="22" transform="translate(425, 400) rotate(30) skewX(30) scale(1, .86062)"/>

</svg>