<?xml version="1.0" standalone="no"?>
<!DOCTYPE svg PUBLIC "-//W3C//DTD SVG 20010904//EN"
 "http://www.w3.org/TR/2001/REC-SVG-20010904/DTD/svg10.dtd">
<svg version="1.0" xmlns="http://www.w3.org/2000/svg"
 width="1024.000000pt" height="1024.000000pt" viewBox="0 0 1024.000000 1024.000000"
 preserveAspectRatio="xMidYMid meet">
<metadata>
Created by potrace 1.14, written by Peter Selinger 2001-2017
</metadata>
<g transform="translate(0.000000,1024.000000) scale(0.100000,-0.100000)"
fill="#000000" stroke="none">
<path d="M4890 10219 c-49 -13 -118 -44 -200 -91 -192 -110 -878 -506 -940
-543 -30 -18 -131 -76 -225 -130 -93 -54 -226 -130 -295 -170 -353 -204 -524
-303 -615 -355 -55 -32 -170 -98 -255 -147 -205 -119 -466 -269 -620 -358
-477 -274 -639 -371 -668 -399 -101 -94 -98 -218 7 -308 22 -18 100 -68 173
-110 132 -75 283 -162 613 -353 94 -54 226 -130 295 -170 69 -40 229 -132 355
-205 356 -206 480 -277 615 -355 125 -72 239 -138 555 -320 169 -97 218 -126
640 -370 538 -311 536 -310 745 -309 216 0 191 -11 865 379 198 114 419 242
490 283 72 41 186 107 255 147 69 40 211 122 315 182 105 60 249 143 320 185
300 173 477 275 595 343 137 79 416 240 665 384 88 51 224 129 303 174 222
127 273 172 287 256 18 108 -45 182 -260 306 -76 44 -144 82 -149 84 -6 2 -27
14 -47 27 -32 20 -668 388 -914 529 -49 28 -252 145 -450 260 -355 205 -500
288 -745 430 -160 92 -333 192 -590 340 -593 343 -625 360 -707 383 -109 30
-302 30 -413 1z m460 -1985 c388 -70 568 -336 364 -541 -104 -104 -274 -170
-492 -193 -154 -16 -382 24 -521 93 -71 35 -167 121 -196 177 -28 54 -26 153
5 214 67 132 277 238 526 265 94 11 197 5 314 -15z"/>
<path d="M411 7094 c-45 -24 -87 -84 -100 -145 -8 -35 -11 -696 -11 -2159 0
-2343 -4 -2189 69 -2342 74 -157 170 -261 315 -345 200 -116 335 -194 521
-301 360 -208 447 -257 705 -407 140 -81 327 -189 415 -240 88 -51 219 -126
290 -167 72 -41 191 -110 265 -153 159 -92 314 -181 580 -335 107 -62 251
-145 320 -185 378 -219 510 -293 540 -303 47 -17 146 -15 180 3 16 8 40 30 53
47 55 75 52 -65 55 2213 2 1867 0 2120 -13 2199 -27 154 -100 292 -215 406
-65 66 -107 93 -325 219 -137 80 -275 159 -305 177 -30 17 -131 76 -225 130
-248 143 -467 269 -570 329 -49 29 -182 105 -295 170 -113 65 -272 157 -355
205 -82 48 -224 129 -315 182 -323 186 -507 292 -620 358 -63 37 -196 113
-295 170 -99 57 -228 132 -286 166 -175 103 -207 117 -279 121 -48 3 -74 -1
-99 -13z m2801 -2369 c282 -113 554 -552 535 -864 -8 -136 -62 -238 -150 -280
-83 -40 -198 -24 -325 47 -65 36 -231 203 -285 287 -114 179 -158 308 -164
485 -4 111 -3 131 17 184 22 59 75 127 114 148 58 32 168 29 258 -7z m-947
-618 c215 -89 410 -326 500 -607 36 -111 46 -287 21 -373 -45 -153 -178 -221
-340 -173 -179 54 -406 292 -500 524 -112 278 -94 527 45 619 71 47 176 51
274 10z m-906 -624 c168 -74 338 -256 437 -468 98 -210 119 -410 57 -545 -47
-104 -116 -150 -222 -150 -120 0 -255 74 -385 210 -87 91 -140 169 -196 285
-69 144 -84 212 -85 365 0 121 2 140 24 187 25 57 96 129 133 137 13 3 32 7
43 10 40 9 139 -7 194 -31z"/>
<path d="M9621 7080 c-34 -17 -131 -70 -215 -118 -83 -49 -232 -135 -331 -192
-99 -57 -232 -134 -295 -171 -63 -36 -191 -111 -285 -164 -93 -54 -237 -137
-320 -185 -82 -48 -226 -131 -320 -184 -93 -54 -226 -131 -295 -171 -109 -64
-338 -196 -780 -450 -69 -40 -183 -106 -255 -147 -71 -42 -231 -133 -355 -204
-206 -118 -233 -136 -316 -219 -80 -79 -97 -103 -142 -195 -89 -185 -82 23
-82 -2359 0 -1467 3 -2125 11 -2160 13 -61 43 -108 89 -139 31 -21 44 -23 110
-20 84 3 66 -5 425 203 203 117 385 222 555 320 69 40 195 112 280 162 233
134 549 317 695 401 72 41 200 116 285 165 85 49 200 115 255 147 119 68 923
533 1209 698 49 29 109 68 133 88 63 51 138 155 189 259 80 165 75 1 72 2385
l-3 2115 -28 58 c-54 109 -158 137 -286 77z m-2301 -2346 c40 -20 87 -75 114
-134 23 -49 26 -68 26 -170 0 -125 -21 -223 -75 -350 -78 -186 -267 -398 -420
-474 -63 -32 -92 -40 -150 -44 -92 -6 -136 9 -190 63 -64 64 -85 130 -85 268
0 92 5 130 26 202 61 213 210 437 365 551 65 47 164 95 218 104 56 9 137 2
171 -16z m1860 -1239 c41 -22 87 -76 114 -135 23 -49 26 -68 26 -170 0 -182
-50 -337 -165 -510 -71 -107 -211 -250 -290 -294 -207 -117 -378 -78 -445 102
-31 82 -28 250 6 367 62 215 208 436 365 551 62 46 165 96 214 105 51 9 143 1
175 -16z"/>
</g>
</svg>
